{"title":"Ali.Fear.Eats.the.Soul.1974.By.FASSBINDER.DVDRiP.XViD.ENG_SUB-Z","uid":6076861,"size":735157624,"categoryP":"video","categoryS":"movies","magnet":"?xt=urn:btih:588532dc64f3d8db76012a920782de5e0b033764&amp;dn=+Ali.Fear.Eats.the.Soul.1974.By.FASSBINDER.DVDRiP.XViD.ENG_SUB-Z&amp;tr=udp%3A%2F%2Ftracker.openbittorrent.com%3A80&amp;tr=udp%3A%2F%2Fopen.demonii.com%3A1337&amp;tr=udp%3A%2F%2Ftracker.coppersurfer.tk%3A6969&amp;tr=udp%3A%2F%2Fexodus.desync.com%3A6969","seeders":7,"leechers":1,"uploader":"Zen_Bud","files":-1,"time":1293908465,"description":"** Ali.Fear.Eats.the.Soul.1974.By.FASSBINDER.DVDRiP.XViD.ENG_SUB-Zen_Bud **\n\nFormat                           : AVI\nFile size                        : 701 MiB\nDuration                         : 1h 29mn\nOverall bit rate                 : 1 097 Kbps\nWriting application              : AVI-Mux GUI \n\nVideo\n\nFormat                           : MPEG-4 Visual\nCodec ID                         : XVID\nDuration                         : 1h 29mn\nBit rate                         : 960 Kbps\nWidth                            : 624 pixels\nHeight                           : 464 pixels\nDisplay aspect ratio             : 4:3\nBits/(Pixel*Frame)               : 0.133\nStream size                      : 614 MiB (88%)\nWriting library                  : XviD 1.2.1 (UTC 2008-12-04)\n\nAudio\n\nFormat                           : MPEG Audio\nFormat profile                   : Layer 3\nCodec ID/Hint                    : MP3\nDuration                         : 1h 29mn\nBit rate                         : 128 Kbps\nChannel(s)                       : 2 channels\nSampling rate                    : 48.0 KHz\nCompression mode                 : Lossy\nStream size                      : 81.8 MiB (12%)\nWriting library                  : LAME3.98r\nLanguage                         : German\n\nText \n\nFormat                           : .srt(UTF-8)\nLanguage                         : English\n\n\n","torrent":{"xt":"urn:btih:588532dc64f3d8db76012a920782de5e0b033764","amp;dn":"+Ali.Fear.Eats.the.Soul.1974.By.FASSBINDER.DVDRiP.XViD.ENG_SUB-Z","amp;tr":["udp%3A%2F%2Ftracker.openbittorrent.com%3A80","udp%3A%2F%2Fopen.demonii.com%3A1337","udp%3A%2F%2Ftracker.coppersurfer.tk%3A6969","udp%3A%2F%2Fexodus.desync.com%3A6969"],"infoHash":"588532dc64f3d8db76012a920782de5e0b033764","infoHashBuffer":{"type":"Buffer","data":[88,133,50,220,100,243,216,219,118,1,42,146,7,130,222,94,11,3,55,100]},"announce":[],"urlList":[]}}